<svg width="412" height="154" viewBox="0 0 412 154" fill="none" xmlns="http://www.w3.org/2000/svg">
<path d="M34.8073 87.0365V121.036L94.3073 153.5L153.807 121.036V87.0365L94.3073 119.505L34.8073 87.0365ZM94.3073 0.510422L0.807281 51.5104L94.3073 102.505L170.807 60.776V119.505H187.807V51.5104L94.3073 0.510422Z" fill="#F3F3F4"/>
<path d="M217.574 62.6711H232.261V69.5877H209.886V33.7752H217.574V62.6711Z" fill="#F3F3F4"/>
<path d="M247.671 43.8169C249.557 43.8169 251.276 44.2023 252.817 44.9627C254.369 45.7127 255.703 46.7075 256.817 47.9419C257.927 49.1659 258.786 50.5825 259.401 52.1919C260.01 53.7909 260.317 55.4315 260.317 57.1086C260.317 58.1242 260.177 59.2023 259.901 60.3377H242.026C242.692 61.494 243.651 62.4627 244.901 63.2544C246.151 64.0461 247.494 64.4419 248.942 64.4419C250.385 64.4419 251.656 64.3273 252.755 64.0877C253.849 63.8534 254.885 63.5461 255.859 63.1711L258.192 67.4627C256.942 68.3377 255.515 69.0148 253.921 69.4836C252.323 69.9523 250.614 70.1919 248.796 70.1919C246.807 70.1919 244.953 69.8481 243.234 69.1711C241.51 68.4784 240.01 67.5409 238.734 66.3586C237.453 65.1815 236.442 63.7856 235.692 62.1711C234.953 60.5461 234.588 58.8273 234.588 57.0044C234.588 55.2284 234.921 53.5409 235.588 51.9419C236.265 50.3325 237.203 48.9315 238.401 47.7336C239.593 46.5409 240.984 45.5877 242.567 44.8794C244.151 44.1711 245.849 43.8169 247.671 43.8169ZM253.38 54.9419C252.974 53.4836 252.255 52.3065 251.213 51.4002C250.171 50.4992 248.989 50.0461 247.671 50.0461C246.323 50.0461 245.099 50.4992 244.005 51.4002C242.921 52.3065 242.177 53.4836 241.776 54.9419H253.38Z" fill="#F3F3F4"/>
<path d="M291.84 44.5252V69.5877H285.819L285.111 66.9002C284.137 68.2231 282.965 69.1034 281.59 69.5461C280.225 69.9731 278.808 70.1919 277.34 70.1919C275.548 70.1919 273.902 69.8481 272.402 69.1711C270.902 68.4784 269.595 67.5356 268.486 66.3377C267.371 65.1294 266.506 63.7284 265.881 62.1294C265.267 60.5356 264.965 58.8273 264.965 57.0044C264.965 55.1867 265.267 53.4784 265.881 51.8794C266.506 50.2856 267.371 48.8898 268.486 47.6919C269.595 46.4992 270.902 45.5565 272.402 44.8586C273.902 44.1659 275.548 43.8169 277.34 43.8169C278.949 43.8169 280.428 44.0773 281.777 44.5877C283.121 45.0877 284.236 45.895 285.111 47.0044L285.819 44.5252H291.84ZM284.861 57.1086C284.861 55.7909 284.678 54.6867 284.319 53.7961C283.97 52.9106 283.496 52.1867 282.902 51.6294C282.319 51.0773 281.631 50.6711 280.84 50.4211C280.048 50.1711 279.199 50.0461 278.298 50.0461C277.381 50.0461 276.527 50.2336 275.736 50.6086C274.944 50.9731 274.241 51.4627 273.631 52.0877C273.032 52.7127 272.569 53.4575 272.236 54.3169C271.902 55.1659 271.736 56.0617 271.736 57.0044C271.736 57.9784 271.902 58.8898 272.236 59.7336C272.569 60.5825 273.032 61.3169 273.631 61.9419C274.241 62.5565 274.944 63.0461 275.736 63.4211C276.527 63.7961 277.381 63.9836 278.298 63.9836C280.116 63.9836 281.657 63.4211 282.923 62.2961C284.183 61.1606 284.829 59.4315 284.861 57.1086Z" fill="#F3F3F4"/>
<path d="M303.456 48.0252C303.79 47.4836 304.17 46.9731 304.602 46.4836C305.045 45.9836 305.571 45.5461 306.186 45.1711C306.795 44.7856 307.482 44.4731 308.248 44.2336C309.024 43.9992 309.899 43.8794 310.873 43.8794C312.024 43.8794 313.357 44.0825 314.873 44.4836L314.206 50.6919C313.842 50.6242 313.477 50.5409 313.102 50.4419C312.795 50.3742 312.456 50.3169 312.081 50.2752C311.717 50.2231 311.383 50.1919 311.081 50.1919C310.008 50.1919 309.008 50.3481 308.081 50.6502C307.149 50.9419 306.342 51.3586 305.665 51.9002C304.998 52.4419 304.462 53.0981 304.061 53.8586C303.654 54.6086 303.456 55.4211 303.456 56.2961V69.5877H296.477V44.5252H302.79L303.456 48.0252Z" fill="#F3F3F4"/>
<path d="M330.691 44.5252C331.634 44.5252 332.676 44.6659 333.816 44.9419C334.967 45.2075 336.045 45.7127 337.045 46.4627C338.056 47.2023 338.91 48.2284 339.608 49.5461C340.301 50.8534 340.65 52.5461 340.65 54.6294V69.5877H333.608V54.8794C333.608 54.119 333.483 53.4627 333.233 52.9211C332.983 52.3794 332.639 51.9523 332.212 51.6294C331.795 51.3117 331.316 51.0773 330.775 50.9211C330.243 50.77 329.712 50.6919 329.17 50.6919C328.738 50.6919 328.259 50.77 327.733 50.9211C327.202 51.0773 326.712 51.3169 326.254 51.6502C325.806 51.9836 325.431 52.4211 325.129 52.9627C324.822 53.5044 324.67 54.145 324.67 54.8794V69.5877H317.712V44.5252H323.67L324.67 46.4419C325.473 45.8742 326.384 45.4159 327.4 45.0669C328.41 44.7075 329.509 44.5252 330.691 44.5252Z" fill="#F3F3F4"/>
<path d="M352.819 69.5877H345.84V44.5252H352.819V69.5877ZM349.34 41.0877C348.256 41.0877 347.34 40.7231 346.59 39.9836C345.85 39.2492 345.485 38.3377 345.485 37.2544C345.485 36.1711 345.85 35.2544 346.59 34.5044C347.34 33.744 348.256 33.3586 349.34 33.3586C350.407 33.3586 351.308 33.744 352.048 34.5044C352.798 35.2544 353.173 36.1711 353.173 37.2544C353.173 38.3377 352.798 39.2492 352.048 39.9836C351.308 40.7231 350.407 41.0877 349.34 41.0877Z" fill="#F3F3F4"/>
<path d="M371.312 44.5252C372.255 44.5252 373.296 44.6659 374.437 44.9419C375.588 45.2075 376.666 45.7127 377.666 46.4627C378.677 47.2023 379.531 48.2284 380.229 49.5461C380.921 50.8534 381.27 52.5461 381.27 54.6294V69.5877H374.229V54.8794C374.229 54.119 374.104 53.4627 373.854 52.9211C373.604 52.3794 373.26 51.9523 372.833 51.6294C372.416 51.3117 371.937 51.0773 371.395 50.9211C370.864 50.77 370.333 50.6919 369.791 50.6919C369.359 50.6919 368.88 50.77 368.354 50.9211C367.823 51.0773 367.333 51.3169 366.875 51.6502C366.427 51.9836 366.052 52.4211 365.75 52.9627C365.442 53.5044 365.291 54.145 365.291 54.8794V69.5877H358.333V44.5252H364.291L365.291 46.4419C366.093 45.8742 367.005 45.4159 368.02 45.0669C369.031 44.7075 370.13 44.5252 371.312 44.5252Z" fill="#F3F3F4"/>
<path d="M405.502 44.5252H411.481V61.1086C411.481 63.0252 411.45 64.7336 411.398 66.2336C411.341 67.7336 411.21 69.0825 411.002 70.2752C410.804 71.4679 410.481 72.5356 410.023 73.4836C409.575 74.4263 408.95 75.3013 408.148 76.1086C406.658 77.5513 405.002 78.5461 403.169 79.0877C401.335 79.6294 399.403 79.9002 397.377 79.9002C395.653 79.9002 394.033 79.6971 392.523 79.2961C391.007 78.8898 389.648 78.3377 388.44 77.6294V71.1086C388.742 71.5773 389.174 71.994 389.731 72.3586C390.283 72.7336 390.924 73.0513 391.648 73.3169C392.367 73.5929 393.137 73.8065 393.96 73.9627C394.794 74.1138 395.627 74.1919 396.46 74.1919C397.57 74.1919 398.611 74.0461 399.585 73.7544C400.57 73.4627 401.424 72.994 402.148 72.3586C402.867 71.7179 403.44 70.9211 403.856 69.9627C404.283 69.0044 404.502 67.8377 404.502 66.4627V65.9419C403.528 66.8169 402.398 67.52 401.106 68.0461C399.825 68.5773 398.429 68.8377 396.919 68.8377C395.236 68.8377 393.679 68.5148 392.252 67.8586C390.82 67.1919 389.575 66.2961 388.523 65.1711C387.481 64.0461 386.669 62.7231 386.085 61.1919C385.502 59.6502 385.21 58.02 385.21 56.2961C385.21 54.5877 385.502 52.9784 386.085 51.4627C386.669 49.9367 387.481 48.6086 388.523 47.4836C389.575 46.3586 390.82 45.4731 392.252 44.8169C393.679 44.1502 395.236 43.8169 396.919 43.8169C398.502 43.8169 399.929 44.0356 401.21 44.4627C402.486 44.8794 403.585 45.5409 404.502 46.4419L405.502 44.5252ZM398.335 62.6086C399.419 62.6086 400.341 62.4211 401.106 62.0461C401.882 61.6606 402.523 61.1606 403.023 60.5461C403.533 59.9367 403.908 59.2648 404.148 58.5252C404.382 57.7909 404.502 57.0669 404.502 56.3586C404.502 55.5825 404.377 54.8169 404.127 54.0669C403.877 53.3065 403.492 52.6294 402.981 52.0461C402.481 51.4523 401.841 50.9731 401.065 50.6086C400.283 50.2336 399.377 50.0461 398.335 50.0461C397.46 50.0461 396.648 50.2127 395.898 50.5461C395.158 50.8794 394.512 51.3325 393.96 51.9002C393.403 52.4731 392.966 53.1398 392.648 53.9002C392.325 54.6659 392.169 55.4836 392.169 56.3586C392.169 57.2336 392.325 58.0565 392.648 58.8169C392.966 59.5669 393.403 60.2284 393.96 60.7961C394.512 61.369 395.158 61.8117 395.898 62.1294C396.648 62.4523 397.46 62.6086 398.335 62.6086Z" fill="#F3F3F4"/>
<path d="M217.405 92.5156C218.723 92.5156 219.744 92.9688 220.468 93.8698C221.202 94.776 221.572 96.0469 221.572 97.6823C221.572 99.3385 221.202 100.62 220.468 101.536C219.728 102.453 218.707 102.911 217.405 102.911C216.749 102.911 216.155 102.792 215.613 102.557C215.072 102.307 214.613 101.932 214.238 101.432H214.134L213.822 102.724H212.718V88.4531H214.238V91.9323C214.238 92.7135 214.218 93.4063 214.176 94.0156H214.238C214.947 93.0156 215.999 92.5156 217.405 92.5156ZM217.176 93.7865C216.134 93.7865 215.384 94.0885 214.926 94.6823C214.468 95.2813 214.238 96.2813 214.238 97.6823C214.238 99.099 214.473 100.115 214.947 100.724C215.416 101.339 216.176 101.641 217.218 101.641C218.145 101.641 218.843 101.302 219.301 100.62C219.759 99.9427 219.988 98.9635 219.988 97.6823C219.988 96.3646 219.759 95.3854 219.301 94.7448C218.843 94.1094 218.134 93.7865 217.176 93.7865Z" fill="#F3F3F4"/>
<path d="M225.298 92.6823H226.923L229.132 98.4115C229.616 99.7188 229.913 100.661 230.028 101.245H230.09C230.173 100.927 230.34 100.391 230.59 99.6406C230.85 98.8906 231.684 96.5729 233.09 92.6823H234.715L230.403 104.12C229.97 105.245 229.47 106.042 228.903 106.516C228.33 106.984 227.632 107.224 226.798 107.224C226.34 107.224 225.882 107.172 225.423 107.078V105.849C225.757 105.932 226.132 105.974 226.548 105.974C227.59 105.974 228.33 105.38 228.778 104.203L229.34 102.786L225.298 92.6823Z" fill="#F3F3F4"/>
<path d="M254.751 102.724L252.917 96.8281C252.792 96.4688 252.574 95.6511 252.271 94.3698H252.188C251.938 95.4427 251.719 96.2656 251.542 96.849L249.646 102.724H247.896L245.146 92.6823H246.751C247.386 95.2136 247.876 97.1354 248.209 98.4531C248.553 99.7761 248.756 100.661 248.813 101.12H248.876C248.943 100.76 249.053 100.307 249.209 99.7656C249.36 99.2136 249.485 98.7761 249.584 98.4531L251.438 92.6823H253.084L254.876 98.4531C255.219 99.4948 255.459 100.38 255.584 101.099H255.646C255.672 100.88 255.735 100.536 255.834 100.078C255.943 99.6198 256.584 97.1563 257.751 92.6823H259.334L256.563 102.724H254.751Z" fill="#F3F3F4"/>
<path d="M272.491 97.6823C272.491 99.3229 272.074 100.609 271.241 101.536C270.418 102.453 269.282 102.911 267.824 102.911C266.918 102.911 266.121 102.703 265.428 102.286C264.73 101.859 264.199 101.255 263.824 100.474C263.449 99.6823 263.262 98.7552 263.262 97.6823C263.262 96.0573 263.663 94.7865 264.47 93.8698C265.288 92.9531 266.428 92.4948 267.887 92.4948C269.288 92.4948 270.407 92.9688 271.241 93.9115C272.074 94.8438 272.491 96.099 272.491 97.6823ZM264.824 97.6823C264.824 98.974 265.079 99.9636 265.595 100.641C266.105 101.307 266.866 101.641 267.866 101.641C268.866 101.641 269.621 101.307 270.137 100.641C270.647 99.9636 270.907 98.974 270.907 97.6823C270.907 96.4219 270.647 95.4531 270.137 94.7865C269.621 94.1198 268.855 93.7865 267.845 93.7865C266.845 93.7865 266.084 94.1146 265.574 94.7656C265.074 95.4219 264.824 96.3906 264.824 97.6823Z" fill="#F3F3F4"/>
<path d="M286.49 97.6823C286.49 99.3229 286.073 100.609 285.24 101.536C284.417 102.453 283.282 102.911 281.823 102.911C280.917 102.911 280.12 102.703 279.427 102.286C278.729 101.859 278.198 101.255 277.823 100.474C277.448 99.6823 277.261 98.7552 277.261 97.6823C277.261 96.0573 277.662 94.7865 278.469 93.8698C279.287 92.9531 280.427 92.4948 281.886 92.4948C283.287 92.4948 284.407 92.9688 285.24 93.9115C286.073 94.8438 286.49 96.099 286.49 97.6823ZM278.823 97.6823C278.823 98.974 279.078 99.9636 279.594 100.641C280.104 101.307 280.865 101.641 281.865 101.641C282.865 101.641 283.62 101.307 284.136 100.641C284.646 99.9636 284.907 98.974 284.907 97.6823C284.907 96.4219 284.646 95.4531 284.136 94.7865C283.62 94.1198 282.854 93.7865 281.844 93.7865C280.844 93.7865 280.084 94.1146 279.573 94.7656C279.073 95.4219 278.823 96.3906 278.823 97.6823Z" fill="#F3F3F4"/>
<path d="M296.489 92.5156C297.807 92.5156 298.828 92.9688 299.552 93.8698C300.286 94.776 300.656 96.0469 300.656 97.6823C300.656 99.3385 300.286 100.62 299.552 101.536C298.812 102.453 297.791 102.911 296.489 102.911C295.833 102.911 295.239 102.792 294.697 102.557C294.156 102.307 293.697 101.932 293.322 101.432H293.218L292.906 102.724H291.802V88.4531H293.322V91.9323C293.322 92.7135 293.302 93.4063 293.26 94.0156H293.322C294.031 93.0156 295.083 92.5156 296.489 92.5156ZM296.26 93.7865C295.218 93.7865 294.468 94.0885 294.01 94.6823C293.552 95.2813 293.322 96.2813 293.322 97.6823C293.322 99.099 293.557 100.115 294.031 100.724C294.499 101.339 295.26 101.641 296.302 101.641C297.229 101.641 297.927 101.302 298.385 100.62C298.843 99.9427 299.072 98.9635 299.072 97.6823C299.072 96.3646 298.843 95.3854 298.385 94.7448C297.927 94.1094 297.218 93.7865 296.26 93.7865Z" fill="#F3F3F4"/>
<path d="M312.445 99.974C312.445 100.922 312.096 101.651 311.403 102.161C310.705 102.661 309.736 102.911 308.486 102.911C307.153 102.911 306.111 102.698 305.361 102.266V100.87C305.846 101.109 306.361 101.302 306.903 101.453C307.455 101.594 307.992 101.661 308.507 101.661C309.299 101.661 309.908 101.536 310.341 101.286C310.768 101.026 310.986 100.635 310.986 100.12C310.986 99.7188 310.809 99.3802 310.466 99.099C310.132 98.8229 309.471 98.4948 308.486 98.1198C307.554 97.7761 306.887 97.474 306.486 97.224C306.096 96.9636 305.804 96.6615 305.611 96.3281C305.429 95.9948 305.341 95.599 305.341 95.1406C305.341 94.3229 305.674 93.6771 306.341 93.2031C307.007 92.7344 307.913 92.4948 309.07 92.4948C310.153 92.4948 311.205 92.7188 312.236 93.1615L311.695 94.3906C310.695 93.974 309.783 93.7656 308.966 93.7656C308.242 93.7656 307.695 93.8854 307.32 94.1198C306.955 94.3438 306.778 94.6511 306.778 95.0365C306.778 95.3177 306.846 95.5521 306.986 95.7448C307.122 95.9271 307.346 96.1094 307.653 96.2865C307.955 96.4531 308.538 96.6979 309.403 97.0156C310.596 97.4479 311.403 97.8854 311.82 98.3281C312.236 98.7761 312.445 99.3229 312.445 99.974Z" fill="#F3F3F4"/>
<path d="M319.103 102.724H317.583V92.6823H319.103V102.724ZM317.458 89.9531C317.458 89.6094 317.541 89.3594 317.708 89.2031C317.885 89.0365 318.103 88.9531 318.353 88.9531C318.603 88.9531 318.812 89.0365 318.978 89.2031C319.155 89.3698 319.249 89.6198 319.249 89.9531C319.249 90.3021 319.155 90.5573 318.978 90.724C318.812 90.8906 318.603 90.974 318.353 90.974C318.103 90.974 317.885 90.8906 317.708 90.724C317.541 90.5573 317.458 90.3021 317.458 89.9531Z" fill="#F3F3F4"/>
<path d="M331.869 102.724V96.224C331.869 95.4063 331.681 94.7969 331.306 94.3906C330.942 93.9896 330.369 93.7865 329.577 93.7865C328.52 93.7865 327.744 94.0729 327.244 94.6406C326.754 95.2136 326.515 96.1511 326.515 97.4531V102.724H324.994V92.6823H326.244L326.494 94.0573H326.556C326.874 93.5573 327.312 93.1771 327.869 92.9115C328.437 92.6354 329.062 92.4948 329.744 92.4948C330.952 92.4948 331.859 92.7865 332.473 93.3698C333.083 93.9531 333.39 94.8854 333.39 96.1615V102.724H331.869Z" fill="#F3F3F4"/>
<path d="M347.406 92.6823V93.6406L345.551 93.8698C345.718 94.0781 345.864 94.3594 345.989 94.7031C346.124 95.0521 346.197 95.4427 346.197 95.8698C346.197 96.8594 345.864 97.6406 345.197 98.224C344.531 98.8073 343.603 99.099 342.426 99.099C342.135 99.099 341.853 99.0781 341.593 99.0365C340.937 99.3698 340.614 99.8021 340.614 100.328C340.614 100.609 340.723 100.807 340.947 100.932C341.182 101.057 341.572 101.12 342.114 101.12H343.906C344.989 101.12 345.822 101.349 346.406 101.807C346.989 102.266 347.281 102.932 347.281 103.807C347.281 104.917 346.827 105.766 345.926 106.349C345.036 106.932 343.739 107.224 342.031 107.224C340.723 107.224 339.708 106.979 338.989 106.495C338.281 106.005 337.926 105.318 337.926 104.432C337.926 103.818 338.119 103.292 338.51 102.849C338.895 102.406 339.452 102.099 340.176 101.932C339.911 101.823 339.687 101.651 339.51 101.411C339.343 101.161 339.26 100.87 339.26 100.536C339.26 100.177 339.353 99.8594 339.551 99.5781C339.744 99.3021 340.051 99.0365 340.468 98.7865C339.952 98.5677 339.531 98.2031 339.197 97.7031C338.874 97.1927 338.718 96.599 338.718 95.9323C338.718 94.8386 339.041 93.9896 339.697 93.3906C340.364 92.7969 341.301 92.4948 342.51 92.4948C343.036 92.4948 343.51 92.5573 343.926 92.6823H347.406ZM339.406 104.411C339.406 104.953 339.635 105.359 340.093 105.641C340.551 105.932 341.202 106.078 342.051 106.078C343.327 106.078 344.27 105.88 344.885 105.495C345.51 105.12 345.822 104.604 345.822 103.953C345.822 103.396 345.645 103.016 345.301 102.807C344.968 102.599 344.333 102.495 343.406 102.495H341.593C340.895 102.495 340.353 102.661 339.968 102.995C339.593 103.328 339.406 103.797 339.406 104.411ZM340.218 95.8906C340.218 96.599 340.411 97.1354 340.801 97.4948C341.202 97.8594 341.76 98.0365 342.468 98.0365C343.952 98.0365 344.697 97.3177 344.697 95.8698C344.697 94.3594 343.947 93.599 342.447 93.599C341.739 93.599 341.187 93.7969 340.801 94.1823C340.411 94.5729 340.218 95.1406 340.218 95.8906Z" fill="#F3F3F4"/>
</svg>
