<svg xmlns="http://www.w3.org/2000/svg" xmlns:xlink="http://www.w3.org/1999/xlink" width="500" zoomAndPan="magnify" viewBox="0 0 375 374.999991" height="500" preserveAspectRatio="xMidYMid meet" version="1.0"><defs><g/><clipPath id="id1"><path d="M 120.359375 102.695312 L 254.609375 102.695312 L 254.609375 212.195312 L 120.359375 212.195312 Z M 120.359375 102.695312 " clip-rule="nonzero"/></clipPath></defs><rect x="-37.5" width="450" fill="#ffffff" y="-37.499999" height="449.999989" fill-opacity="1"/><rect x="-37.5" width="450" fill="#1e1e1e" y="-37.499999" height="449.999989" fill-opacity="1"/><rect x="-37.5" width="450" fill="#ffffff" y="-37.499999" height="449.999989" fill-opacity="1"/><rect x="-37.5" width="450" fill="#1e1e1e" y="-37.499999" height="449.999989" fill-opacity="1"/><g clip-path="url(#id1)"><path fill="#f3f3f4" d="M 144.769531 164.621094 L 144.769531 188.953125 L 187.484375 212.191406 L 230.203125 188.953125 L 230.203125 164.621094 L 187.484375 187.859375 Z M 187.484375 102.695312 L 120.359375 139.195312 L 187.484375 175.695312 L 242.40625 145.824219 L 242.40625 187.859375 L 254.609375 187.859375 L 254.609375 139.195312 Z M 187.484375 102.695312 " fill-opacity="1" fill-rule="nonzero"/></g><g fill="#f3f3f4" fill-opacity="1"><g transform="translate(116.149997, 246.905873)"><g><path d="M 6.96875 -4.796875 L 17.15625 -4.796875 L 17.15625 0 L 1.640625 0 L 1.640625 -24.8125 L 6.96875 -24.8125 Z M 6.96875 -4.796875 "/></g></g></g><g fill="#f3f3f4" fill-opacity="1"><g transform="translate(133.821044, 246.905873)"><g><path d="M 10.15625 -17.84375 C 11.457031 -17.84375 12.644531 -17.582031 13.71875 -17.0625 C 14.789062 -16.539062 15.710938 -15.851562 16.484375 -15 C 17.253906 -14.144531 17.847656 -13.160156 18.265625 -12.046875 C 18.691406 -10.941406 18.90625 -9.804688 18.90625 -8.640625 C 18.90625 -7.941406 18.8125 -7.195312 18.625 -6.40625 L 6.234375 -6.40625 C 6.703125 -5.613281 7.363281 -4.941406 8.21875 -4.390625 C 9.082031 -3.835938 10.019531 -3.5625 11.03125 -3.5625 C 12.03125 -3.5625 12.910156 -3.644531 13.671875 -3.8125 C 14.429688 -3.976562 15.144531 -4.1875 15.8125 -4.4375 L 17.4375 -1.46875 C 16.570312 -0.863281 15.582031 -0.394531 14.46875 -0.0625 C 13.363281 0.257812 12.179688 0.421875 10.921875 0.421875 C 9.546875 0.421875 8.257812 0.179688 7.0625 -0.296875 C 5.875 -0.773438 4.835938 -1.421875 3.953125 -2.234375 C 3.066406 -3.054688 2.363281 -4.023438 1.84375 -5.140625 C 1.332031 -6.265625 1.078125 -7.457031 1.078125 -8.71875 C 1.078125 -9.945312 1.3125 -11.113281 1.78125 -12.21875 C 2.25 -13.332031 2.894531 -14.300781 3.71875 -15.125 C 4.550781 -15.957031 5.515625 -16.617188 6.609375 -17.109375 C 7.710938 -17.597656 8.894531 -17.84375 10.15625 -17.84375 Z M 14.109375 -10.15625 C 13.828125 -11.15625 13.320312 -11.96875 12.59375 -12.59375 C 11.875 -13.226562 11.0625 -13.546875 10.15625 -13.546875 C 9.21875 -13.546875 8.367188 -13.226562 7.609375 -12.59375 C 6.847656 -11.96875 6.332031 -11.15625 6.0625 -10.15625 Z M 14.109375 -10.15625 "/></g></g></g><g fill="#f3f3f4" fill-opacity="1"><g transform="translate(154.816337, 246.905873)"><g><path d="M 19.734375 -17.359375 L 19.734375 0 L 15.578125 0 L 15.078125 -1.859375 C 14.398438 -0.941406 13.585938 -0.332031 12.640625 -0.03125 C 11.703125 0.269531 10.71875 0.421875 9.6875 0.421875 C 8.457031 0.421875 7.320312 0.179688 6.28125 -0.296875 C 5.238281 -0.773438 4.332031 -1.425781 3.5625 -2.25 C 2.800781 -3.082031 2.203125 -4.050781 1.765625 -5.15625 C 1.335938 -6.269531 1.125 -7.457031 1.125 -8.71875 C 1.125 -9.976562 1.335938 -11.160156 1.765625 -12.265625 C 2.203125 -13.378906 2.800781 -14.347656 3.5625 -15.171875 C 4.332031 -16.003906 5.238281 -16.65625 6.28125 -17.125 C 7.320312 -17.601562 8.457031 -17.84375 9.6875 -17.84375 C 10.8125 -17.84375 11.835938 -17.664062 12.765625 -17.3125 C 13.703125 -16.96875 14.472656 -16.410156 15.078125 -15.640625 L 15.578125 -17.359375 Z M 14.90625 -8.640625 C 14.90625 -9.554688 14.78125 -10.320312 14.53125 -10.9375 C 14.289062 -11.550781 13.96875 -12.050781 13.5625 -12.4375 C 13.15625 -12.820312 12.675781 -13.101562 12.125 -13.28125 C 11.582031 -13.457031 10.992188 -13.546875 10.359375 -13.546875 C 9.734375 -13.546875 9.144531 -13.414062 8.59375 -13.15625 C 8.039062 -12.90625 7.554688 -12.5625 7.140625 -12.125 C 6.722656 -11.695312 6.394531 -11.179688 6.15625 -10.578125 C 5.925781 -9.984375 5.8125 -9.363281 5.8125 -8.71875 C 5.8125 -8.039062 5.925781 -7.410156 6.15625 -6.828125 C 6.394531 -6.242188 6.722656 -5.734375 7.140625 -5.296875 C 7.554688 -4.867188 8.039062 -4.523438 8.59375 -4.265625 C 9.144531 -4.015625 9.734375 -3.890625 10.359375 -3.890625 C 11.617188 -3.890625 12.6875 -4.28125 13.5625 -5.0625 C 14.4375 -5.84375 14.882812 -7.035156 14.90625 -8.640625 Z M 14.90625 -8.640625 "/></g></g></g><g fill="#f3f3f4" fill-opacity="1"><g transform="translate(176.266529, 246.905873)"><g><path d="M 6.328125 -14.9375 C 6.566406 -15.3125 6.835938 -15.664062 7.140625 -16 C 7.441406 -16.34375 7.800781 -16.648438 8.21875 -16.921875 C 8.644531 -17.191406 9.125 -17.40625 9.65625 -17.5625 C 10.195312 -17.726562 10.804688 -17.8125 11.484375 -17.8125 C 12.273438 -17.8125 13.195312 -17.671875 14.25 -17.390625 L 13.796875 -13.09375 C 13.535156 -13.132812 13.273438 -13.191406 13.015625 -13.265625 C 12.804688 -13.304688 12.570312 -13.34375 12.3125 -13.375 C 12.0625 -13.414062 11.832031 -13.4375 11.625 -13.4375 C 10.875 -13.4375 10.175781 -13.332031 9.53125 -13.125 C 8.894531 -12.914062 8.34375 -12.625 7.875 -12.25 C 7.40625 -11.875 7.03125 -11.421875 6.75 -10.890625 C 6.46875 -10.367188 6.328125 -9.804688 6.328125 -9.203125 L 6.328125 0 L 1.5 0 L 1.5 -17.359375 L 5.875 -17.359375 Z M 6.328125 -14.9375 "/></g></g></g><g fill="#f3f3f4" fill-opacity="1"><g transform="translate(190.858271, 246.905873)"><g><path d="M 10.609375 -17.359375 C 11.253906 -17.359375 11.972656 -17.265625 12.765625 -17.078125 C 13.566406 -16.890625 14.316406 -16.539062 15.015625 -16.03125 C 15.710938 -15.519531 16.300781 -14.804688 16.78125 -13.890625 C 17.257812 -12.984375 17.5 -11.804688 17.5 -10.359375 L 17.5 0 L 12.640625 0 L 12.640625 -10.1875 C 12.640625 -10.71875 12.550781 -11.171875 12.375 -11.546875 C 12.195312 -11.921875 11.960938 -12.21875 11.671875 -12.4375 C 11.378906 -12.664062 11.046875 -12.832031 10.671875 -12.9375 C 10.296875 -13.039062 9.925781 -13.09375 9.5625 -13.09375 C 9.25 -13.09375 8.910156 -13.039062 8.546875 -12.9375 C 8.191406 -12.832031 7.851562 -12.660156 7.53125 -12.421875 C 7.21875 -12.191406 6.957031 -11.890625 6.75 -11.515625 C 6.539062 -11.140625 6.4375 -10.695312 6.4375 -10.1875 L 6.4375 0 L 1.609375 0 L 1.609375 -17.359375 L 5.734375 -17.359375 L 6.4375 -16.03125 C 7 -16.425781 7.628906 -16.742188 8.328125 -16.984375 C 9.023438 -17.234375 9.785156 -17.359375 10.609375 -17.359375 Z M 10.609375 -17.359375 "/></g></g></g><g fill="#f3f3f4" fill-opacity="1"><g transform="translate(209.963998, 246.905873)"><g><path d="M 6.828125 0 L 2 0 L 2 -17.359375 L 6.828125 -17.359375 Z M 4.40625 -19.734375 C 3.664062 -19.734375 3.035156 -19.988281 2.515625 -20.5 C 2.003906 -21.019531 1.75 -21.65625 1.75 -22.40625 C 1.75 -23.144531 2.003906 -23.773438 2.515625 -24.296875 C 3.035156 -24.828125 3.664062 -25.09375 4.40625 -25.09375 C 5.15625 -25.09375 5.785156 -24.828125 6.296875 -24.296875 C 6.804688 -23.773438 7.0625 -23.144531 7.0625 -22.40625 C 7.0625 -21.65625 6.804688 -21.019531 6.296875 -20.5 C 5.785156 -19.988281 5.15625 -19.734375 4.40625 -19.734375 Z M 4.40625 -19.734375 "/></g></g></g><g fill="#f3f3f4" fill-opacity="1"><g transform="translate(218.992001, 246.905873)"><g><path d="M 10.609375 -17.359375 C 11.253906 -17.359375 11.972656 -17.265625 12.765625 -17.078125 C 13.566406 -16.890625 14.316406 -16.539062 15.015625 -16.03125 C 15.710938 -15.519531 16.300781 -14.804688 16.78125 -13.890625 C 17.257812 -12.984375 17.5 -11.804688 17.5 -10.359375 L 17.5 0 L 12.640625 0 L 12.640625 -10.1875 C 12.640625 -10.71875 12.550781 -11.171875 12.375 -11.546875 C 12.195312 -11.921875 11.960938 -12.21875 11.671875 -12.4375 C 11.378906 -12.664062 11.046875 -12.832031 10.671875 -12.9375 C 10.296875 -13.039062 9.925781 -13.09375 9.5625 -13.09375 C 9.25 -13.09375 8.910156 -13.039062 8.546875 -12.9375 C 8.191406 -12.832031 7.851562 -12.660156 7.53125 -12.421875 C 7.21875 -12.191406 6.957031 -11.890625 6.75 -11.515625 C 6.539062 -11.140625 6.4375 -10.695312 6.4375 -10.1875 L 6.4375 0 L 1.609375 0 L 1.609375 -17.359375 L 5.734375 -17.359375 L 6.4375 -16.03125 C 7 -16.425781 7.628906 -16.742188 8.328125 -16.984375 C 9.023438 -17.234375 9.785156 -17.359375 10.609375 -17.359375 Z M 10.609375 -17.359375 "/></g></g></g><g fill="#f3f3f4" fill-opacity="1"><g transform="translate(238.097728, 246.905873)"><g><path d="M 15.1875 -17.359375 L 19.3125 -17.359375 L 19.3125 -5.875 C 19.3125 -4.550781 19.296875 -3.367188 19.265625 -2.328125 C 19.234375 -1.285156 19.144531 -0.351562 19 0.46875 C 18.863281 1.300781 18.632812 2.039062 18.3125 2.6875 C 18 3.34375 17.566406 3.953125 17.015625 4.515625 C 15.984375 5.515625 14.832031 6.203125 13.5625 6.578125 C 12.289062 6.953125 10.957031 7.140625 9.5625 7.140625 C 8.363281 7.140625 7.238281 7 6.1875 6.71875 C 5.144531 6.4375 4.203125 6.050781 3.359375 5.5625 L 3.359375 1.046875 C 3.566406 1.378906 3.863281 1.671875 4.25 1.921875 C 4.632812 2.179688 5.078125 2.40625 5.578125 2.59375 C 6.078125 2.78125 6.613281 2.925781 7.1875 3.03125 C 7.757812 3.132812 8.335938 3.1875 8.921875 3.1875 C 9.691406 3.1875 10.414062 3.085938 11.09375 2.890625 C 11.769531 2.691406 12.359375 2.367188 12.859375 1.921875 C 13.359375 1.484375 13.753906 0.929688 14.046875 0.265625 C 14.335938 -0.398438 14.484375 -1.210938 14.484375 -2.171875 L 14.484375 -2.515625 C 13.804688 -1.910156 13.023438 -1.425781 12.140625 -1.0625 C 11.253906 -0.707031 10.285156 -0.53125 9.234375 -0.53125 C 8.066406 -0.53125 6.988281 -0.753906 6 -1.203125 C 5.007812 -1.660156 4.148438 -2.28125 3.421875 -3.0625 C 2.703125 -3.84375 2.140625 -4.765625 1.734375 -5.828125 C 1.328125 -6.890625 1.125 -8.015625 1.125 -9.203125 C 1.125 -10.390625 1.328125 -11.507812 1.734375 -12.5625 C 2.140625 -13.613281 2.703125 -14.53125 3.421875 -15.3125 C 4.148438 -16.09375 5.007812 -16.707031 6 -17.15625 C 6.988281 -17.613281 8.066406 -17.84375 9.234375 -17.84375 C 10.335938 -17.84375 11.332031 -17.695312 12.21875 -17.40625 C 13.101562 -17.113281 13.859375 -16.65625 14.484375 -16.03125 Z M 10.21875 -4.828125 C 10.96875 -4.828125 11.609375 -4.960938 12.140625 -5.234375 C 12.679688 -5.503906 13.125 -5.847656 13.46875 -6.265625 C 13.820312 -6.679688 14.078125 -7.144531 14.234375 -7.65625 C 14.398438 -8.175781 14.484375 -8.679688 14.484375 -9.171875 C 14.484375 -9.703125 14.394531 -10.226562 14.21875 -10.75 C 14.050781 -11.28125 13.789062 -11.75 13.4375 -12.15625 C 13.09375 -12.570312 12.648438 -12.90625 12.109375 -13.15625 C 11.578125 -13.414062 10.945312 -13.546875 10.21875 -13.546875 C 9.613281 -13.546875 9.050781 -13.425781 8.53125 -13.1875 C 8.019531 -12.957031 7.570312 -12.644531 7.1875 -12.25 C 6.800781 -11.851562 6.5 -11.390625 6.28125 -10.859375 C 6.0625 -10.335938 5.953125 -9.773438 5.953125 -9.171875 C 5.953125 -8.566406 6.0625 -8 6.28125 -7.46875 C 6.5 -6.945312 6.800781 -6.488281 7.1875 -6.09375 C 7.570312 -5.695312 8.019531 -5.382812 8.53125 -5.15625 C 9.050781 -4.9375 9.613281 -4.828125 10.21875 -4.828125 Z M 10.21875 -4.828125 "/></g></g></g><g fill="#f3f3f4" fill-opacity="1"><g transform="translate(140.153482, 269.855841)"><g><path d="M 4.359375 -7.078125 C 5.265625 -7.078125 5.972656 -6.765625 6.484375 -6.140625 C 6.992188 -5.515625 7.25 -4.628906 7.25 -3.484375 C 7.25 -2.335938 6.992188 -1.445312 6.484375 -0.8125 C 5.972656 -0.1875 5.265625 0.125 4.359375 0.125 C 3.898438 0.125 3.484375 0.0390625 3.109375 -0.125 C 2.734375 -0.289062 2.421875 -0.546875 2.171875 -0.890625 L 2.09375 -0.890625 L 1.875 0 L 1.125 0 L 1.125 -9.875 L 2.171875 -9.875 L 2.171875 -7.484375 C 2.171875 -6.941406 2.15625 -6.457031 2.125 -6.03125 L 2.171875 -6.03125 C 2.660156 -6.726562 3.390625 -7.078125 4.359375 -7.078125 Z M 4.203125 -6.1875 C 3.484375 -6.1875 2.960938 -5.976562 2.640625 -5.5625 C 2.328125 -5.15625 2.171875 -4.460938 2.171875 -3.484375 C 2.171875 -2.503906 2.332031 -1.800781 2.65625 -1.375 C 2.988281 -0.957031 3.515625 -0.75 4.234375 -0.75 C 4.878906 -0.75 5.359375 -0.984375 5.671875 -1.453125 C 5.992188 -1.929688 6.15625 -2.613281 6.15625 -3.5 C 6.15625 -4.40625 5.992188 -5.078125 5.671875 -5.515625 C 5.359375 -5.960938 4.867188 -6.1875 4.203125 -6.1875 Z M 4.203125 -6.1875 "/></g></g></g><g fill="#f3f3f4" fill-opacity="1"><g transform="translate(149.96343, 269.855841)"><g><path d="M 0.015625 -6.953125 L 1.140625 -6.953125 L 2.671875 -2.984375 C 3.003906 -2.078125 3.207031 -1.425781 3.28125 -1.03125 L 3.34375 -1.03125 C 3.394531 -1.25 3.507812 -1.617188 3.6875 -2.140625 C 3.863281 -2.660156 4.4375 -4.265625 5.40625 -6.953125 L 6.53125 -6.953125 L 3.546875 0.96875 C 3.253906 1.75 2.910156 2.300781 2.515625 2.625 C 2.117188 2.957031 1.628906 3.125 1.046875 3.125 C 0.734375 3.125 0.421875 3.085938 0.109375 3.015625 L 0.109375 2.171875 C 0.335938 2.222656 0.59375 2.25 0.875 2.25 C 1.601562 2.25 2.125 1.84375 2.4375 1.03125 L 2.8125 0.03125 Z M 0.015625 -6.953125 "/></g></g></g><g fill="#f3f3f4" fill-opacity="1"><g transform="translate(158.358271, 269.855841)"><g/></g></g><g fill="#f3f3f4" fill-opacity="1"><g transform="translate(163.580237, 269.855841)"><g><path d="M 6.796875 0 L 5.515625 -4.078125 C 5.441406 -4.328125 5.296875 -4.894531 5.078125 -5.78125 L 5.015625 -5.78125 C 4.847656 -5.039062 4.703125 -4.46875 4.578125 -4.0625 L 3.265625 0 L 2.046875 0 L 0.140625 -6.953125 L 1.25 -6.953125 C 1.695312 -5.203125 2.035156 -3.867188 2.265625 -2.953125 C 2.503906 -2.046875 2.640625 -1.4375 2.671875 -1.125 L 2.734375 -1.125 C 2.773438 -1.363281 2.847656 -1.671875 2.953125 -2.046875 C 3.054688 -2.429688 3.144531 -2.738281 3.21875 -2.96875 L 4.5 -6.953125 L 5.640625 -6.953125 L 6.890625 -2.96875 C 7.128906 -2.238281 7.289062 -1.625 7.375 -1.125 L 7.421875 -1.125 C 7.441406 -1.28125 7.488281 -1.515625 7.5625 -1.828125 C 7.632812 -2.148438 8.070312 -3.859375 8.875 -6.953125 L 9.96875 -6.953125 L 8.046875 0 Z M 6.796875 0 "/></g></g></g><g fill="#f3f3f4" fill-opacity="1"><g transform="translate(175.53505, 269.855841)"><g><path d="M 7.125 -3.484375 C 7.125 -2.347656 6.835938 -1.460938 6.265625 -0.828125 C 5.691406 -0.191406 4.898438 0.125 3.890625 0.125 C 3.273438 0.125 2.722656 -0.0195312 2.234375 -0.3125 C 1.753906 -0.601562 1.382812 -1.019531 1.125 -1.5625 C 0.863281 -2.113281 0.734375 -2.753906 0.734375 -3.484375 C 0.734375 -4.617188 1.015625 -5.5 1.578125 -6.125 C 2.148438 -6.757812 2.9375 -7.078125 3.9375 -7.078125 C 4.914062 -7.078125 5.691406 -6.753906 6.265625 -6.109375 C 6.835938 -5.460938 7.125 -4.585938 7.125 -3.484375 Z M 1.828125 -3.484375 C 1.828125 -2.597656 2.003906 -1.921875 2.359375 -1.453125 C 2.710938 -0.984375 3.234375 -0.75 3.921875 -0.75 C 4.609375 -0.75 5.128906 -0.976562 5.484375 -1.4375 C 5.847656 -1.90625 6.03125 -2.585938 6.03125 -3.484375 C 6.03125 -4.367188 5.847656 -5.039062 5.484375 -5.5 C 5.128906 -5.957031 4.601562 -6.1875 3.90625 -6.1875 C 3.21875 -6.1875 2.695312 -5.957031 2.34375 -5.5 C 2 -5.050781 1.828125 -4.378906 1.828125 -3.484375 Z M 1.828125 -3.484375 "/></g></g></g><g fill="#f3f3f4" fill-opacity="1"><g transform="translate(185.230775, 269.855841)"><g><path d="M 7.125 -3.484375 C 7.125 -2.347656 6.835938 -1.460938 6.265625 -0.828125 C 5.691406 -0.191406 4.898438 0.125 3.890625 0.125 C 3.273438 0.125 2.722656 -0.0195312 2.234375 -0.3125 C 1.753906 -0.601562 1.382812 -1.019531 1.125 -1.5625 C 0.863281 -2.113281 0.734375 -2.753906 0.734375 -3.484375 C 0.734375 -4.617188 1.015625 -5.5 1.578125 -6.125 C 2.148438 -6.757812 2.9375 -7.078125 3.9375 -7.078125 C 4.914062 -7.078125 5.691406 -6.753906 6.265625 -6.109375 C 6.835938 -5.460938 7.125 -4.585938 7.125 -3.484375 Z M 1.828125 -3.484375 C 1.828125 -2.597656 2.003906 -1.921875 2.359375 -1.453125 C 2.710938 -0.984375 3.234375 -0.75 3.921875 -0.75 C 4.609375 -0.75 5.128906 -0.976562 5.484375 -1.4375 C 5.847656 -1.90625 6.03125 -2.585938 6.03125 -3.484375 C 6.03125 -4.367188 5.847656 -5.039062 5.484375 -5.5 C 5.128906 -5.957031 4.601562 -6.1875 3.90625 -6.1875 C 3.21875 -6.1875 2.695312 -5.957031 2.34375 -5.5 C 2 -5.050781 1.828125 -4.378906 1.828125 -3.484375 Z M 1.828125 -3.484375 "/></g></g></g><g fill="#f3f3f4" fill-opacity="1"><g transform="translate(194.926498, 269.855841)"><g><path d="M 4.359375 -7.078125 C 5.265625 -7.078125 5.972656 -6.765625 6.484375 -6.140625 C 6.992188 -5.515625 7.25 -4.628906 7.25 -3.484375 C 7.25 -2.335938 6.992188 -1.445312 6.484375 -0.8125 C 5.972656 -0.1875 5.265625 0.125 4.359375 0.125 C 3.898438 0.125 3.484375 0.0390625 3.109375 -0.125 C 2.734375 -0.289062 2.421875 -0.546875 2.171875 -0.890625 L 2.09375 -0.890625 L 1.875 0 L 1.125 0 L 1.125 -9.875 L 2.171875 -9.875 L 2.171875 -7.484375 C 2.171875 -6.941406 2.15625 -6.457031 2.125 -6.03125 L 2.171875 -6.03125 C 2.660156 -6.726562 3.390625 -7.078125 4.359375 -7.078125 Z M 4.203125 -6.1875 C 3.484375 -6.1875 2.960938 -5.976562 2.640625 -5.5625 C 2.328125 -5.15625 2.171875 -4.460938 2.171875 -3.484375 C 2.171875 -2.503906 2.332031 -1.800781 2.65625 -1.375 C 2.988281 -0.957031 3.515625 -0.75 4.234375 -0.75 C 4.878906 -0.75 5.359375 -0.984375 5.671875 -1.453125 C 5.992188 -1.929688 6.15625 -2.613281 6.15625 -3.5 C 6.15625 -4.40625 5.992188 -5.078125 5.671875 -5.515625 C 5.359375 -5.960938 4.867188 -6.1875 4.203125 -6.1875 Z M 4.203125 -6.1875 "/></g></g></g><g fill="#f3f3f4" fill-opacity="1"><g transform="translate(204.736447, 269.855841)"><g><path d="M 5.609375 -1.890625 C 5.609375 -1.242188 5.363281 -0.742188 4.875 -0.390625 C 4.394531 -0.046875 3.71875 0.125 2.84375 0.125 C 1.925781 0.125 1.207031 -0.0195312 0.6875 -0.3125 L 0.6875 -1.28125 C 1.019531 -1.113281 1.378906 -0.984375 1.765625 -0.890625 C 2.148438 -0.796875 2.519531 -0.75 2.875 -0.75 C 3.425781 -0.75 3.847656 -0.832031 4.140625 -1 C 4.441406 -1.175781 4.59375 -1.445312 4.59375 -1.8125 C 4.59375 -2.082031 4.472656 -2.3125 4.234375 -2.5 C 4.003906 -2.695312 3.546875 -2.925781 2.859375 -3.1875 C 2.210938 -3.425781 1.753906 -3.632812 1.484375 -3.8125 C 1.210938 -4 1.007812 -4.207031 0.875 -4.4375 C 0.738281 -4.664062 0.671875 -4.9375 0.671875 -5.25 C 0.671875 -5.8125 0.898438 -6.253906 1.359375 -6.578125 C 1.828125 -6.910156 2.460938 -7.078125 3.265625 -7.078125 C 4.015625 -7.078125 4.742188 -6.925781 5.453125 -6.625 L 5.078125 -5.765625 C 4.378906 -6.054688 3.75 -6.203125 3.1875 -6.203125 C 2.6875 -6.203125 2.304688 -6.125 2.046875 -5.96875 C 1.796875 -5.8125 1.671875 -5.59375 1.671875 -5.3125 C 1.671875 -5.132812 1.71875 -4.976562 1.8125 -4.84375 C 1.914062 -4.707031 2.070312 -4.582031 2.28125 -4.46875 C 2.488281 -4.351562 2.894531 -4.179688 3.5 -3.953125 C 4.320312 -3.648438 4.878906 -3.347656 5.171875 -3.046875 C 5.460938 -2.742188 5.609375 -2.359375 5.609375 -1.890625 Z M 5.609375 -1.890625 "/></g></g></g><g fill="#f3f3f4" fill-opacity="1"><g transform="translate(212.782279, 269.855841)"><g><path d="M 2.171875 0 L 1.125 0 L 1.125 -6.953125 L 2.171875 -6.953125 Z M 1.03125 -8.84375 C 1.03125 -9.082031 1.085938 -9.257812 1.203125 -9.375 C 1.328125 -9.488281 1.476562 -9.546875 1.65625 -9.546875 C 1.820312 -9.546875 1.960938 -9.488281 2.078125 -9.375 C 2.203125 -9.257812 2.265625 -9.082031 2.265625 -8.84375 C 2.265625 -8.601562 2.203125 -8.425781 2.078125 -8.3125 C 1.960938 -8.195312 1.820312 -8.140625 1.65625 -8.140625 C 1.476562 -8.140625 1.328125 -8.195312 1.203125 -8.3125 C 1.085938 -8.425781 1.03125 -8.601562 1.03125 -8.84375 Z M 1.03125 -8.84375 "/></g></g></g><g fill="#f3f3f4" fill-opacity="1"><g transform="translate(217.915405, 269.855841)"><g><path d="M 5.875 0 L 5.875 -4.5 C 5.875 -5.0625 5.742188 -5.484375 5.484375 -5.765625 C 5.234375 -6.046875 4.832031 -6.1875 4.28125 -6.1875 C 3.550781 -6.1875 3.015625 -5.988281 2.671875 -5.59375 C 2.335938 -5.207031 2.171875 -4.5625 2.171875 -3.65625 L 2.171875 0 L 1.125 0 L 1.125 -6.953125 L 1.96875 -6.953125 L 2.140625 -6 L 2.203125 -6 C 2.410156 -6.34375 2.707031 -6.609375 3.09375 -6.796875 C 3.488281 -6.984375 3.925781 -7.078125 4.40625 -7.078125 C 5.238281 -7.078125 5.867188 -6.875 6.296875 -6.46875 C 6.722656 -6.070312 6.9375 -5.425781 6.9375 -4.53125 L 6.9375 0 Z M 5.875 0 "/></g></g></g><g fill="#f3f3f4" fill-opacity="1"><g transform="translate(227.738046, 269.855841)"><g><path d="M 6.8125 -6.953125 L 6.8125 -6.296875 L 5.515625 -6.140625 C 5.640625 -5.992188 5.75 -5.800781 5.84375 -5.5625 C 5.9375 -5.320312 5.984375 -5.050781 5.984375 -4.75 C 5.984375 -4.0625 5.75 -3.515625 5.28125 -3.109375 C 4.8125 -2.703125 4.171875 -2.5 3.359375 -2.5 C 3.148438 -2.5 2.957031 -2.519531 2.78125 -2.5625 C 2.332031 -2.320312 2.109375 -2.019531 2.109375 -1.65625 C 2.109375 -1.46875 2.1875 -1.328125 2.34375 -1.234375 C 2.5 -1.148438 2.769531 -1.109375 3.15625 -1.109375 L 4.375 -1.109375 C 5.132812 -1.109375 5.710938 -0.945312 6.109375 -0.625 C 6.515625 -0.3125 6.71875 0.144531 6.71875 0.75 C 6.71875 1.519531 6.410156 2.109375 5.796875 2.515625 C 5.179688 2.921875 4.28125 3.125 3.09375 3.125 C 2.1875 3.125 1.484375 2.953125 0.984375 2.609375 C 0.492188 2.273438 0.25 1.800781 0.25 1.1875 C 0.25 0.757812 0.382812 0.390625 0.65625 0.078125 C 0.925781 -0.222656 1.304688 -0.429688 1.796875 -0.546875 C 1.617188 -0.628906 1.46875 -0.753906 1.34375 -0.921875 C 1.226562 -1.085938 1.171875 -1.285156 1.171875 -1.515625 C 1.171875 -1.765625 1.238281 -1.984375 1.375 -2.171875 C 1.507812 -2.367188 1.722656 -2.554688 2.015625 -2.734375 C 1.648438 -2.878906 1.351562 -3.128906 1.125 -3.484375 C 0.90625 -3.835938 0.796875 -4.242188 0.796875 -4.703125 C 0.796875 -5.460938 1.023438 -6.046875 1.484375 -6.453125 C 1.941406 -6.867188 2.585938 -7.078125 3.421875 -7.078125 C 3.785156 -7.078125 4.113281 -7.035156 4.40625 -6.953125 Z M 1.265625 1.171875 C 1.265625 1.546875 1.421875 1.828125 1.734375 2.015625 C 2.054688 2.210938 2.515625 2.3125 3.109375 2.3125 C 3.992188 2.3125 4.644531 2.179688 5.0625 1.921875 C 5.488281 1.660156 5.703125 1.300781 5.703125 0.84375 C 5.703125 0.46875 5.585938 0.207031 5.359375 0.0625 C 5.128906 -0.0820312 4.691406 -0.15625 4.046875 -0.15625 L 2.78125 -0.15625 C 2.300781 -0.15625 1.925781 -0.0390625 1.65625 0.1875 C 1.394531 0.414062 1.265625 0.742188 1.265625 1.171875 Z M 1.828125 -4.734375 C 1.828125 -4.242188 1.960938 -3.875 2.234375 -3.625 C 2.515625 -3.375 2.898438 -3.25 3.390625 -3.25 C 4.421875 -3.25 4.9375 -3.75 4.9375 -4.75 C 4.9375 -5.789062 4.414062 -6.3125 3.375 -6.3125 C 2.882812 -6.3125 2.503906 -6.175781 2.234375 -5.90625 C 1.960938 -5.644531 1.828125 -5.253906 1.828125 -4.734375 Z M 1.828125 -4.734375 "/></g></g></g></svg>