<svg xmlns="http://www.w3.org/2000/svg" xmlns:xlink="http://www.w3.org/1999/xlink" width="500" zoomAndPan="magnify" viewBox="0 0 375 374.999991" height="500" preserveAspectRatio="xMidYMid meet" version="1.0"><defs><g/><clipPath id="id1"><path d="M 34.355469 130.128906 L 174.605469 130.128906 L 174.605469 244.878906 L 34.355469 244.878906 Z M 34.355469 130.128906 " clip-rule="nonzero"/></clipPath></defs><rect x="-37.5" width="450" fill="#1e1e1e" y="-37.499999" height="449.999989" fill-opacity="1"/><rect x="-37.5" width="450" fill="#ffffff" y="-37.499999" height="449.999989" fill-opacity="1"/><rect x="-37.5" width="450" fill="#1e1e1e" y="-37.499999" height="449.999989" fill-opacity="1"/><g clip-path="url(#id1)"><path fill="#f3f3f4" d="M 59.855469 195.027344 L 59.855469 220.527344 L 104.480469 244.875 L 149.105469 220.527344 L 149.105469 195.027344 L 104.480469 219.378906 Z M 104.480469 130.132812 L 34.355469 168.382812 L 104.480469 206.628906 L 161.855469 175.332031 L 161.855469 219.378906 L 174.605469 219.378906 L 174.605469 168.382812 Z M 104.480469 130.132812 " fill-opacity="1" fill-rule="nonzero"/></g><g fill="#f3f3f4" fill-opacity="1"><g transform="translate(189.383535, 181.940801)"><g><path d="M 7.546875 -5.1875 L 18.5625 -5.1875 L 18.5625 0 L 1.78125 0 L 1.78125 -26.859375 L 7.546875 -26.859375 Z M 7.546875 -5.1875 "/></g></g></g><g fill="#f3f3f4" fill-opacity="1"><g transform="translate(208.519264, 181.940801)"><g><path d="M 10.984375 -19.328125 C 12.398438 -19.328125 13.6875 -19.039062 14.84375 -18.46875 C 16.007812 -17.90625 17.007812 -17.160156 17.84375 -16.234375 C 18.675781 -15.316406 19.320312 -14.253906 19.78125 -13.046875 C 20.238281 -11.847656 20.46875 -10.617188 20.46875 -9.359375 C 20.46875 -8.597656 20.363281 -7.789062 20.15625 -6.9375 L 6.75 -6.9375 C 7.25 -6.070312 7.96875 -5.34375 8.90625 -4.75 C 9.84375 -4.15625 10.851562 -3.859375 11.9375 -3.859375 C 13.019531 -3.859375 13.972656 -3.945312 14.796875 -4.125 C 15.617188 -4.300781 16.394531 -4.53125 17.125 -4.8125 L 18.875 -1.59375 C 17.9375 -0.9375 16.867188 -0.429688 15.671875 -0.078125 C 14.472656 0.273438 13.191406 0.453125 11.828125 0.453125 C 10.335938 0.453125 8.945312 0.195312 7.65625 -0.3125 C 6.363281 -0.832031 5.238281 -1.535156 4.28125 -2.421875 C 3.320312 -3.304688 2.5625 -4.351562 2 -5.5625 C 1.445312 -6.78125 1.171875 -8.070312 1.171875 -9.4375 C 1.171875 -10.769531 1.421875 -12.035156 1.921875 -13.234375 C 2.429688 -14.441406 3.132812 -15.492188 4.03125 -16.390625 C 4.925781 -17.285156 5.96875 -18 7.15625 -18.53125 C 8.34375 -19.0625 9.617188 -19.328125 10.984375 -19.328125 Z M 15.265625 -10.984375 C 14.960938 -12.078125 14.421875 -12.960938 13.640625 -13.640625 C 12.859375 -14.316406 11.972656 -14.65625 10.984375 -14.65625 C 9.972656 -14.65625 9.054688 -14.316406 8.234375 -13.640625 C 7.421875 -12.960938 6.863281 -12.078125 6.5625 -10.984375 Z M 15.265625 -10.984375 "/></g></g></g><g fill="#f3f3f4" fill-opacity="1"><g transform="translate(231.254772, 181.940801)"><g><path d="M 21.375 -18.796875 L 21.375 0 L 16.859375 0 L 16.328125 -2.015625 C 15.597656 -1.023438 14.71875 -0.363281 13.6875 -0.03125 C 12.664062 0.289062 11.601562 0.453125 10.5 0.453125 C 9.15625 0.453125 7.921875 0.195312 6.796875 -0.3125 C 5.671875 -0.832031 4.691406 -1.539062 3.859375 -2.4375 C 3.023438 -3.34375 2.375 -4.394531 1.90625 -5.59375 C 1.445312 -6.789062 1.21875 -8.070312 1.21875 -9.4375 C 1.21875 -10.800781 1.445312 -12.082031 1.90625 -13.28125 C 2.375 -14.476562 3.023438 -15.523438 3.859375 -16.421875 C 4.691406 -17.316406 5.671875 -18.023438 6.796875 -18.546875 C 7.921875 -19.066406 9.15625 -19.328125 10.5 -19.328125 C 11.707031 -19.328125 12.816406 -19.132812 13.828125 -18.75 C 14.835938 -18.375 15.671875 -17.769531 16.328125 -16.9375 L 16.859375 -18.796875 Z M 16.140625 -9.359375 C 16.140625 -10.347656 16.003906 -11.175781 15.734375 -11.84375 C 15.472656 -12.507812 15.117188 -13.050781 14.671875 -13.46875 C 14.234375 -13.882812 13.71875 -14.1875 13.125 -14.375 C 12.53125 -14.5625 11.894531 -14.65625 11.21875 -14.65625 C 10.53125 -14.65625 9.890625 -14.515625 9.296875 -14.234375 C 8.703125 -13.960938 8.175781 -13.59375 7.71875 -13.125 C 7.269531 -12.65625 6.921875 -12.097656 6.671875 -11.453125 C 6.421875 -10.816406 6.296875 -10.144531 6.296875 -9.4375 C 6.296875 -8.707031 6.421875 -8.023438 6.671875 -7.390625 C 6.921875 -6.753906 7.269531 -6.203125 7.71875 -5.734375 C 8.175781 -5.273438 8.703125 -4.90625 9.296875 -4.625 C 9.890625 -4.34375 10.53125 -4.203125 11.21875 -4.203125 C 12.582031 -4.203125 13.738281 -4.625 14.6875 -5.46875 C 15.632812 -6.320312 16.117188 -7.617188 16.140625 -9.359375 Z M 16.140625 -9.359375 "/></g></g></g><g fill="#f3f3f4" fill-opacity="1"><g transform="translate(254.482884, 181.940801)"><g><path d="M 6.859375 -16.171875 C 7.109375 -16.578125 7.394531 -16.960938 7.71875 -17.328125 C 8.050781 -17.703125 8.445312 -18.03125 8.90625 -18.3125 C 9.363281 -18.601562 9.878906 -18.835938 10.453125 -19.015625 C 11.035156 -19.191406 11.691406 -19.28125 12.421875 -19.28125 C 13.285156 -19.28125 14.285156 -19.128906 15.421875 -18.828125 L 14.921875 -14.171875 C 14.648438 -14.222656 14.375 -14.285156 14.09375 -14.359375 C 13.863281 -14.410156 13.609375 -14.453125 13.328125 -14.484375 C 13.054688 -14.523438 12.804688 -14.546875 12.578125 -14.546875 C 11.773438 -14.546875 11.023438 -14.429688 10.328125 -14.203125 C 9.628906 -13.984375 9.023438 -13.671875 8.515625 -13.265625 C 8.015625 -12.859375 7.613281 -12.367188 7.3125 -11.796875 C 7.007812 -11.234375 6.859375 -10.625 6.859375 -9.96875 L 6.859375 0 L 1.625 0 L 1.625 -18.796875 L 6.359375 -18.796875 Z M 6.859375 -16.171875 "/></g></g></g><g fill="#f3f3f4" fill-opacity="1"><g transform="translate(270.284078, 181.940801)"><g><path d="M 11.484375 -18.796875 C 12.191406 -18.796875 12.972656 -18.691406 13.828125 -18.484375 C 14.691406 -18.285156 15.5 -17.90625 16.25 -17.34375 C 17.007812 -16.789062 17.648438 -16.019531 18.171875 -15.03125 C 18.691406 -14.050781 18.953125 -12.78125 18.953125 -11.21875 L 18.953125 0 L 13.671875 0 L 13.671875 -11.03125 C 13.671875 -11.601562 13.578125 -12.09375 13.390625 -12.5 C 13.203125 -12.90625 12.945312 -13.226562 12.625 -13.46875 C 12.3125 -13.707031 11.953125 -13.882812 11.546875 -14 C 11.148438 -14.113281 10.75 -14.171875 10.34375 -14.171875 C 10.019531 -14.171875 9.660156 -14.113281 9.265625 -14 C 8.867188 -13.882812 8.5 -13.703125 8.15625 -13.453125 C 7.820312 -13.203125 7.539062 -12.875 7.3125 -12.46875 C 7.082031 -12.0625 6.96875 -11.582031 6.96875 -11.03125 L 6.96875 0 L 1.75 0 L 1.75 -18.796875 L 6.21875 -18.796875 L 6.96875 -17.359375 C 7.570312 -17.785156 8.253906 -18.128906 9.015625 -18.390625 C 9.773438 -18.660156 10.597656 -18.796875 11.484375 -18.796875 Z M 11.484375 -18.796875 "/></g></g></g><g fill="#f3f3f4" fill-opacity="1"><g transform="translate(290.973401, 181.940801)"><g><path d="M 7.390625 0 L 2.15625 0 L 2.15625 -18.796875 L 7.390625 -18.796875 Z M 4.78125 -21.375 C 3.96875 -21.375 3.28125 -21.648438 2.71875 -22.203125 C 2.164062 -22.753906 1.890625 -23.4375 1.890625 -24.25 C 1.890625 -25.0625 2.164062 -25.75 2.71875 -26.3125 C 3.28125 -26.882812 3.96875 -27.171875 4.78125 -27.171875 C 5.582031 -27.171875 6.257812 -26.882812 6.8125 -26.3125 C 7.375 -25.75 7.65625 -25.0625 7.65625 -24.25 C 7.65625 -23.4375 7.375 -22.753906 6.8125 -22.203125 C 6.257812 -21.648438 5.582031 -21.375 4.78125 -21.375 Z M 4.78125 -21.375 "/></g></g></g><g fill="#f3f3f4" fill-opacity="1"><g transform="translate(300.7497, 181.940801)"><g><path d="M 11.484375 -18.796875 C 12.191406 -18.796875 12.972656 -18.691406 13.828125 -18.484375 C 14.691406 -18.285156 15.5 -17.90625 16.25 -17.34375 C 17.007812 -16.789062 17.648438 -16.019531 18.171875 -15.03125 C 18.691406 -14.050781 18.953125 -12.78125 18.953125 -11.21875 L 18.953125 0 L 13.671875 0 L 13.671875 -11.03125 C 13.671875 -11.601562 13.578125 -12.09375 13.390625 -12.5 C 13.203125 -12.90625 12.945312 -13.226562 12.625 -13.46875 C 12.3125 -13.707031 11.953125 -13.882812 11.546875 -14 C 11.148438 -14.113281 10.75 -14.171875 10.34375 -14.171875 C 10.019531 -14.171875 9.660156 -14.113281 9.265625 -14 C 8.867188 -13.882812 8.5 -13.703125 8.15625 -13.453125 C 7.820312 -13.203125 7.539062 -12.875 7.3125 -12.46875 C 7.082031 -12.0625 6.96875 -11.582031 6.96875 -11.03125 L 6.96875 0 L 1.75 0 L 1.75 -18.796875 L 6.21875 -18.796875 L 6.96875 -17.359375 C 7.570312 -17.785156 8.253906 -18.128906 9.015625 -18.390625 C 9.773438 -18.660156 10.597656 -18.796875 11.484375 -18.796875 Z M 11.484375 -18.796875 "/></g></g></g><g fill="#f3f3f4" fill-opacity="1"><g transform="translate(321.439023, 181.940801)"><g><path d="M 16.4375 -18.796875 L 20.921875 -18.796875 L 20.921875 -6.359375 C 20.921875 -4.921875 20.898438 -3.640625 20.859375 -2.515625 C 20.816406 -1.390625 20.71875 -0.378906 20.5625 0.515625 C 20.414062 1.410156 20.171875 2.210938 19.828125 2.921875 C 19.492188 3.628906 19.023438 4.285156 18.421875 4.890625 C 17.304688 5.972656 16.0625 6.71875 14.6875 7.125 C 13.3125 7.53125 11.863281 7.734375 10.34375 7.734375 C 9.050781 7.734375 7.835938 7.582031 6.703125 7.28125 C 5.566406 6.976562 4.546875 6.5625 3.640625 6.03125 L 3.640625 1.140625 C 3.867188 1.492188 4.191406 1.804688 4.609375 2.078125 C 5.023438 2.359375 5.503906 2.597656 6.046875 2.796875 C 6.585938 3.003906 7.164062 3.164062 7.78125 3.28125 C 8.40625 3.394531 9.03125 3.453125 9.65625 3.453125 C 10.488281 3.453125 11.269531 3.34375 12 3.125 C 12.738281 2.90625 13.378906 2.554688 13.921875 2.078125 C 14.460938 1.597656 14.890625 1 15.203125 0.28125 C 15.523438 -0.4375 15.6875 -1.3125 15.6875 -2.34375 L 15.6875 -2.734375 C 14.957031 -2.078125 14.109375 -1.550781 13.140625 -1.15625 C 12.179688 -0.757812 11.132812 -0.5625 10 -0.5625 C 8.738281 -0.5625 7.570312 -0.804688 6.5 -1.296875 C 5.425781 -1.796875 4.492188 -2.46875 3.703125 -3.3125 C 2.921875 -4.15625 2.3125 -5.148438 1.875 -6.296875 C 1.4375 -7.453125 1.21875 -8.675781 1.21875 -9.96875 C 1.21875 -11.25 1.4375 -12.457031 1.875 -13.59375 C 2.3125 -14.738281 2.921875 -15.734375 3.703125 -16.578125 C 4.492188 -17.421875 5.425781 -18.085938 6.5 -18.578125 C 7.570312 -19.078125 8.738281 -19.328125 10 -19.328125 C 11.1875 -19.328125 12.257812 -19.164062 13.21875 -18.84375 C 14.175781 -18.53125 15 -18.035156 15.6875 -17.359375 Z M 11.0625 -5.234375 C 11.875 -5.234375 12.566406 -5.375 13.140625 -5.65625 C 13.722656 -5.945312 14.203125 -6.320312 14.578125 -6.78125 C 14.960938 -7.238281 15.242188 -7.742188 15.421875 -8.296875 C 15.597656 -8.847656 15.6875 -9.390625 15.6875 -9.921875 C 15.6875 -10.503906 15.59375 -11.078125 15.40625 -11.640625 C 15.21875 -12.210938 14.929688 -12.71875 14.546875 -13.15625 C 14.171875 -13.601562 13.691406 -13.960938 13.109375 -14.234375 C 12.523438 -14.515625 11.84375 -14.65625 11.0625 -14.65625 C 10.40625 -14.65625 9.796875 -14.53125 9.234375 -14.28125 C 8.679688 -14.03125 8.195312 -13.691406 7.78125 -13.265625 C 7.363281 -12.835938 7.035156 -12.335938 6.796875 -11.765625 C 6.554688 -11.191406 6.4375 -10.578125 6.4375 -9.921875 C 6.4375 -9.265625 6.554688 -8.648438 6.796875 -8.078125 C 7.035156 -7.515625 7.363281 -7.019531 7.78125 -6.59375 C 8.195312 -6.164062 8.679688 -5.832031 9.234375 -5.59375 C 9.796875 -5.351562 10.40625 -5.234375 11.0625 -5.234375 Z M 11.0625 -5.234375 "/></g></g></g><g fill="#f3f3f4" fill-opacity="1"><g transform="translate(192.085073, 206.792966)"><g><path d="M 4.71875 -7.65625 C 5.707031 -7.65625 6.472656 -7.316406 7.015625 -6.640625 C 7.566406 -5.960938 7.84375 -5.007812 7.84375 -3.78125 C 7.84375 -2.539062 7.566406 -1.578125 7.015625 -0.890625 C 6.460938 -0.203125 5.695312 0.140625 4.71875 0.140625 C 4.226562 0.140625 3.78125 0.0507812 3.375 -0.125 C 2.96875 -0.3125 2.625 -0.59375 2.34375 -0.96875 L 2.265625 -0.96875 L 2.03125 0 L 1.203125 0 L 1.203125 -10.703125 L 2.34375 -10.703125 L 2.34375 -8.09375 C 2.34375 -7.507812 2.328125 -6.988281 2.296875 -6.53125 L 2.34375 -6.53125 C 2.875 -7.28125 3.664062 -7.65625 4.71875 -7.65625 Z M 4.546875 -6.703125 C 3.765625 -6.703125 3.203125 -6.476562 2.859375 -6.03125 C 2.515625 -5.582031 2.34375 -4.832031 2.34375 -3.78125 C 2.34375 -2.71875 2.519531 -1.957031 2.875 -1.5 C 3.226562 -1.039062 3.796875 -0.8125 4.578125 -0.8125 C 5.273438 -0.8125 5.796875 -1.066406 6.140625 -1.578125 C 6.484375 -2.085938 6.65625 -2.820312 6.65625 -3.78125 C 6.65625 -4.769531 6.484375 -5.503906 6.140625 -5.984375 C 5.796875 -6.460938 5.265625 -6.703125 4.546875 -6.703125 Z M 4.546875 -6.703125 "/></g></g></g><g fill="#f3f3f4" fill-opacity="1"><g transform="translate(202.708128, 206.792966)"><g><path d="M 0.015625 -7.53125 L 1.234375 -7.53125 L 2.890625 -3.234375 C 3.253906 -2.253906 3.476562 -1.546875 3.5625 -1.109375 L 3.609375 -1.109375 C 3.671875 -1.347656 3.796875 -1.75 3.984375 -2.3125 C 4.179688 -2.875 4.804688 -4.613281 5.859375 -7.53125 L 7.078125 -7.53125 L 3.84375 1.046875 C 3.519531 1.890625 3.144531 2.488281 2.71875 2.84375 C 2.289062 3.195312 1.765625 3.375 1.140625 3.375 C 0.796875 3.375 0.453125 3.335938 0.109375 3.265625 L 0.109375 2.34375 C 0.359375 2.40625 0.640625 2.4375 0.953125 2.4375 C 1.734375 2.4375 2.289062 1.992188 2.625 1.109375 L 3.046875 0.046875 Z M 0.015625 -7.53125 "/></g></g></g><g fill="#f3f3f4" fill-opacity="1"><g transform="translate(211.798784, 206.792966)"><g/></g></g><g fill="#f3f3f4" fill-opacity="1"><g transform="translate(217.453578, 206.792966)"><g><path d="M 7.359375 0 L 5.984375 -4.421875 C 5.890625 -4.691406 5.726562 -5.304688 5.5 -6.265625 L 5.4375 -6.265625 C 5.25 -5.460938 5.085938 -4.84375 4.953125 -4.40625 L 3.53125 0 L 2.21875 0 L 0.15625 -7.53125 L 1.359375 -7.53125 C 1.835938 -5.632812 2.203125 -4.191406 2.453125 -3.203125 C 2.710938 -2.210938 2.863281 -1.546875 2.90625 -1.203125 L 2.953125 -1.203125 C 3.003906 -1.472656 3.085938 -1.8125 3.203125 -2.21875 C 3.316406 -2.632812 3.410156 -2.960938 3.484375 -3.203125 L 4.875 -7.53125 L 6.109375 -7.53125 L 7.453125 -3.203125 C 7.710938 -2.421875 7.890625 -1.757812 7.984375 -1.21875 L 8.03125 -1.21875 C 8.050781 -1.382812 8.097656 -1.640625 8.171875 -1.984375 C 8.253906 -2.328125 8.734375 -4.175781 9.609375 -7.53125 L 10.796875 -7.53125 L 8.71875 0 Z M 7.359375 0 "/></g></g></g><g fill="#f3f3f4" fill-opacity="1"><g transform="translate(230.399276, 206.792966)"><g><path d="M 7.71875 -3.78125 C 7.71875 -2.550781 7.40625 -1.585938 6.78125 -0.890625 C 6.164062 -0.203125 5.3125 0.140625 4.21875 0.140625 C 3.539062 0.140625 2.941406 -0.015625 2.421875 -0.328125 C 1.898438 -0.648438 1.5 -1.101562 1.21875 -1.6875 C 0.9375 -2.28125 0.796875 -2.976562 0.796875 -3.78125 C 0.796875 -5 1.097656 -5.953125 1.703125 -6.640625 C 2.316406 -7.328125 3.171875 -7.671875 4.265625 -7.671875 C 5.316406 -7.671875 6.15625 -7.316406 6.78125 -6.609375 C 7.40625 -5.910156 7.71875 -4.96875 7.71875 -3.78125 Z M 1.96875 -3.78125 C 1.96875 -2.8125 2.160156 -2.070312 2.546875 -1.5625 C 2.929688 -1.0625 3.5 -0.8125 4.25 -0.8125 C 5 -0.8125 5.566406 -1.0625 5.953125 -1.5625 C 6.335938 -2.070312 6.53125 -2.8125 6.53125 -3.78125 C 6.53125 -4.726562 6.335938 -5.453125 5.953125 -5.953125 C 5.566406 -6.453125 4.992188 -6.703125 4.234375 -6.703125 C 3.484375 -6.703125 2.914062 -6.457031 2.53125 -5.96875 C 2.15625 -5.476562 1.96875 -4.75 1.96875 -3.78125 Z M 1.96875 -3.78125 "/></g></g></g><g fill="#f3f3f4" fill-opacity="1"><g transform="translate(240.898642, 206.792966)"><g><path d="M 7.71875 -3.78125 C 7.71875 -2.550781 7.40625 -1.585938 6.78125 -0.890625 C 6.164062 -0.203125 5.3125 0.140625 4.21875 0.140625 C 3.539062 0.140625 2.941406 -0.015625 2.421875 -0.328125 C 1.898438 -0.648438 1.5 -1.101562 1.21875 -1.6875 C 0.9375 -2.28125 0.796875 -2.976562 0.796875 -3.78125 C 0.796875 -5 1.097656 -5.953125 1.703125 -6.640625 C 2.316406 -7.328125 3.171875 -7.671875 4.265625 -7.671875 C 5.316406 -7.671875 6.15625 -7.316406 6.78125 -6.609375 C 7.40625 -5.910156 7.71875 -4.96875 7.71875 -3.78125 Z M 1.96875 -3.78125 C 1.96875 -2.8125 2.160156 -2.070312 2.546875 -1.5625 C 2.929688 -1.0625 3.5 -0.8125 4.25 -0.8125 C 5 -0.8125 5.566406 -1.0625 5.953125 -1.5625 C 6.335938 -2.070312 6.53125 -2.8125 6.53125 -3.78125 C 6.53125 -4.726562 6.335938 -5.453125 5.953125 -5.953125 C 5.566406 -6.453125 4.992188 -6.703125 4.234375 -6.703125 C 3.484375 -6.703125 2.914062 -6.457031 2.53125 -5.96875 C 2.15625 -5.476562 1.96875 -4.75 1.96875 -3.78125 Z M 1.96875 -3.78125 "/></g></g></g><g fill="#f3f3f4" fill-opacity="1"><g transform="translate(251.398004, 206.792966)"><g><path d="M 4.71875 -7.65625 C 5.707031 -7.65625 6.472656 -7.316406 7.015625 -6.640625 C 7.566406 -5.960938 7.84375 -5.007812 7.84375 -3.78125 C 7.84375 -2.539062 7.566406 -1.578125 7.015625 -0.890625 C 6.460938 -0.203125 5.695312 0.140625 4.71875 0.140625 C 4.226562 0.140625 3.78125 0.0507812 3.375 -0.125 C 2.96875 -0.3125 2.625 -0.59375 2.34375 -0.96875 L 2.265625 -0.96875 L 2.03125 0 L 1.203125 0 L 1.203125 -10.703125 L 2.34375 -10.703125 L 2.34375 -8.09375 C 2.34375 -7.507812 2.328125 -6.988281 2.296875 -6.53125 L 2.34375 -6.53125 C 2.875 -7.28125 3.664062 -7.65625 4.71875 -7.65625 Z M 4.546875 -6.703125 C 3.765625 -6.703125 3.203125 -6.476562 2.859375 -6.03125 C 2.515625 -5.582031 2.34375 -4.832031 2.34375 -3.78125 C 2.34375 -2.71875 2.519531 -1.957031 2.875 -1.5 C 3.226562 -1.039062 3.796875 -0.8125 4.578125 -0.8125 C 5.273438 -0.8125 5.796875 -1.066406 6.140625 -1.578125 C 6.484375 -2.085938 6.65625 -2.820312 6.65625 -3.78125 C 6.65625 -4.769531 6.484375 -5.503906 6.140625 -5.984375 C 5.796875 -6.460938 5.265625 -6.703125 4.546875 -6.703125 Z M 4.546875 -6.703125 "/></g></g></g><g fill="#f3f3f4" fill-opacity="1"><g transform="translate(262.021061, 206.792966)"><g><path d="M 6.0625 -2.0625 C 6.0625 -1.351562 5.800781 -0.804688 5.28125 -0.421875 C 4.757812 -0.046875 4.03125 0.140625 3.09375 0.140625 C 2.09375 0.140625 1.3125 -0.0195312 0.75 -0.34375 L 0.75 -1.390625 C 1.113281 -1.210938 1.5 -1.066406 1.90625 -0.953125 C 2.320312 -0.847656 2.722656 -0.796875 3.109375 -0.796875 C 3.703125 -0.796875 4.160156 -0.890625 4.484375 -1.078125 C 4.804688 -1.273438 4.96875 -1.566406 4.96875 -1.953125 C 4.96875 -2.253906 4.835938 -2.507812 4.578125 -2.71875 C 4.328125 -2.925781 3.832031 -3.171875 3.09375 -3.453125 C 2.394531 -3.710938 1.894531 -3.9375 1.59375 -4.125 C 1.300781 -4.320312 1.082031 -4.546875 0.9375 -4.796875 C 0.800781 -5.046875 0.734375 -5.34375 0.734375 -5.6875 C 0.734375 -6.300781 0.984375 -6.785156 1.484375 -7.140625 C 1.984375 -7.492188 2.664062 -7.671875 3.53125 -7.671875 C 4.34375 -7.671875 5.132812 -7.503906 5.90625 -7.171875 L 5.5 -6.25 C 4.75 -6.5625 4.066406 -6.71875 3.453125 -6.71875 C 2.910156 -6.71875 2.5 -6.628906 2.21875 -6.453125 C 1.945312 -6.285156 1.8125 -6.054688 1.8125 -5.765625 C 1.8125 -5.554688 1.863281 -5.378906 1.96875 -5.234375 C 2.070312 -5.097656 2.238281 -4.960938 2.46875 -4.828125 C 2.695312 -4.703125 3.132812 -4.519531 3.78125 -4.28125 C 4.675781 -3.957031 5.28125 -3.628906 5.59375 -3.296875 C 5.90625 -2.960938 6.0625 -2.550781 6.0625 -2.0625 Z M 6.0625 -2.0625 "/></g></g></g><g fill="#f3f3f4" fill-opacity="1"><g transform="translate(270.733779, 206.792966)"><g><path d="M 2.34375 0 L 1.203125 0 L 1.203125 -7.53125 L 2.34375 -7.53125 Z M 1.109375 -9.578125 C 1.109375 -9.835938 1.171875 -10.023438 1.296875 -10.140625 C 1.429688 -10.265625 1.59375 -10.328125 1.78125 -10.328125 C 1.96875 -10.328125 2.125 -10.265625 2.25 -10.140625 C 2.382812 -10.015625 2.453125 -9.828125 2.453125 -9.578125 C 2.453125 -9.316406 2.382812 -9.125 2.25 -9 C 2.125 -8.875 1.96875 -8.8125 1.78125 -8.8125 C 1.59375 -8.8125 1.429688 -8.875 1.296875 -9 C 1.171875 -9.125 1.109375 -9.316406 1.109375 -9.578125 Z M 1.109375 -9.578125 "/></g></g></g><g fill="#f3f3f4" fill-opacity="1"><g transform="translate(276.29237, 206.792966)"><g><path d="M 6.359375 0 L 6.359375 -4.875 C 6.359375 -5.488281 6.21875 -5.945312 5.9375 -6.25 C 5.664062 -6.550781 5.234375 -6.703125 4.640625 -6.703125 C 3.847656 -6.703125 3.265625 -6.488281 2.890625 -6.0625 C 2.523438 -5.632812 2.34375 -4.929688 2.34375 -3.953125 L 2.34375 0 L 1.203125 0 L 1.203125 -7.53125 L 2.140625 -7.53125 L 2.328125 -6.5 L 2.375 -6.5 C 2.613281 -6.875 2.941406 -7.160156 3.359375 -7.359375 C 3.785156 -7.566406 4.253906 -7.671875 4.765625 -7.671875 C 5.671875 -7.671875 6.351562 -7.453125 6.8125 -7.015625 C 7.269531 -6.578125 7.5 -5.878906 7.5 -4.921875 L 7.5 0 Z M 6.359375 0 "/></g></g></g><g fill="#f3f3f4" fill-opacity="1"><g transform="translate(286.92917, 206.792966)"><g><path d="M 7.375 -7.53125 L 7.375 -6.8125 L 5.984375 -6.640625 C 6.109375 -6.484375 6.21875 -6.273438 6.3125 -6.015625 C 6.414062 -5.753906 6.46875 -5.460938 6.46875 -5.140625 C 6.46875 -4.398438 6.21875 -3.8125 5.71875 -3.375 C 5.21875 -2.9375 4.523438 -2.71875 3.640625 -2.71875 C 3.421875 -2.71875 3.210938 -2.734375 3.015625 -2.765625 C 2.523438 -2.515625 2.28125 -2.191406 2.28125 -1.796875 C 2.28125 -1.585938 2.363281 -1.4375 2.53125 -1.34375 C 2.707031 -1.25 3 -1.203125 3.40625 -1.203125 L 4.75 -1.203125 C 5.5625 -1.203125 6.1875 -1.03125 6.625 -0.6875 C 7.0625 -0.34375 7.28125 0.15625 7.28125 0.8125 C 7.28125 1.644531 6.941406 2.28125 6.265625 2.71875 C 5.597656 3.15625 4.625 3.375 3.34375 3.375 C 2.363281 3.375 1.601562 3.191406 1.0625 2.828125 C 0.53125 2.460938 0.265625 1.945312 0.265625 1.28125 C 0.265625 0.820312 0.410156 0.425781 0.703125 0.09375 C 0.992188 -0.238281 1.410156 -0.46875 1.953125 -0.59375 C 1.753906 -0.675781 1.585938 -0.804688 1.453125 -0.984375 C 1.328125 -1.171875 1.265625 -1.390625 1.265625 -1.640625 C 1.265625 -1.910156 1.335938 -2.148438 1.484375 -2.359375 C 1.628906 -2.566406 1.859375 -2.765625 2.171875 -2.953125 C 1.785156 -3.117188 1.46875 -3.390625 1.21875 -3.765625 C 0.976562 -4.148438 0.859375 -4.59375 0.859375 -5.09375 C 0.859375 -5.914062 1.101562 -6.550781 1.59375 -7 C 2.09375 -7.445312 2.796875 -7.671875 3.703125 -7.671875 C 4.097656 -7.671875 4.453125 -7.625 4.765625 -7.53125 Z M 1.375 1.265625 C 1.375 1.671875 1.546875 1.976562 1.890625 2.1875 C 2.234375 2.40625 2.722656 2.515625 3.359375 2.515625 C 4.316406 2.515625 5.023438 2.367188 5.484375 2.078125 C 5.953125 1.796875 6.1875 1.410156 6.1875 0.921875 C 6.1875 0.503906 6.054688 0.21875 5.796875 0.0625 C 5.546875 -0.09375 5.070312 -0.171875 4.375 -0.171875 L 3.015625 -0.171875 C 2.492188 -0.171875 2.085938 -0.046875 1.796875 0.203125 C 1.515625 0.453125 1.375 0.804688 1.375 1.265625 Z M 1.984375 -5.125 C 1.984375 -4.59375 2.128906 -4.191406 2.421875 -3.921875 C 2.722656 -3.648438 3.140625 -3.515625 3.671875 -3.515625 C 4.785156 -3.515625 5.34375 -4.054688 5.34375 -5.140625 C 5.34375 -6.273438 4.78125 -6.84375 3.65625 -6.84375 C 3.125 -6.84375 2.710938 -6.695312 2.421875 -6.40625 C 2.128906 -6.113281 1.984375 -5.6875 1.984375 -5.125 Z M 1.984375 -5.125 "/></g></g></g></svg>